<?xml version="1.0" encoding="UTF-8" standalone="no"?>
<!-- Created with Inkscape (http://www.inkscape.org/) -->

<svg
   xmlns:dc="http://purl.org/dc/elements/1.1/"
   xmlns:cc="http://creativecommons.org/ns#"
   xmlns:rdf="http://www.w3.org/1999/02/22-rdf-syntax-ns#"
   xmlns:svg="http://www.w3.org/2000/svg"
   xmlns="http://www.w3.org/2000/svg"
   xmlns:sodipodi="http://sodipodi.sourceforge.net/DTD/sodipodi-0.dtd"
   xmlns:inkscape="http://www.inkscape.org/namespaces/inkscape"
   sodipodi:docname="tp.png"
   inkscape:version="0.48.2 r9819"
   version="1.1"
   id="svg2"
   height="1052.3622047"
   width="744.09448819">
  <sodipodi:namedview
     id="base"
     pagecolor="#ffffff"
     bordercolor="#666666"
     borderopacity="1.0"
     inkscape:pageopacity="0.0"
     inkscape:pageshadow="2"
     inkscape:zoom="0.63491736"
     inkscape:cx="79.157758"
     inkscape:cy="667.31295"
     inkscape:document-units="px"
     inkscape:current-layer="layer1"
     showgrid="false"
     inkscape:window-width="1187"
     inkscape:window-height="674"
     inkscape:window-x="188"
     inkscape:window-y="27"
     inkscape:window-maximized="0" />
  <defs
     id="defs4" />
  <metadata
     id="metadata7">
    <rdf:RDF>
      <cc:Work
         rdf:about="">
        <dc:format>image/svg+xml</dc:format>
        <dc:type
           rdf:resource="http://purl.org/dc/dcmitype/StillImage" />
        <dc:title></dc:title>
      </cc:Work>
    </rdf:RDF>
  </metadata>
  <g
     id="layer1"
     inkscape:groupmode="layer"
     inkscape:label="Layer 1">
    <path
       style="fill:#ffffff;stroke:#000000;stroke-width:2.50000000000000000;stroke-linecap:round;stroke-linejoin:round;stroke-opacity:1;stroke-miterlimit:4;stroke-dasharray:none"
       d="m 138.77489,393.1654 c 0,0 -11.23006,163.35732 3.90612,175.08554 15.13616,11.72823 218.74207,-21.78097 228.50734,-30.15827 9.76527,-8.3773 10.25353,-183.46286 10.25353,-183.46286"
       id="path3298"
       inkscape:connector-curvature="0"
       inkscape:export-filename="/home/jered/bumscrape/website/tp.png"
       inkscape:export-xdpi="90"
       inkscape:export-ydpi="90" />
    <path
       id="path3267"
       style="fill:#f5f5f5;stroke:#000000;stroke-width:2.50000000000000000;stroke-linecap:round;stroke-linejoin:round;stroke-miterlimit:4;stroke-opacity:1;stroke-dasharray:none"
       d="m 334.68923,372.74617 -188.38855,20.86883 0,-148.05075 188.38855,-20.86883 m 0,0 c 40.44815,0 73.23787,33.1423 73.23787,74.02537 0,40.8831 -32.78971,74.02538 -73.23787,74.02538"
       inkscape:connector-curvature="0"
       sodipodi:nodetypes="cccccsc"
       inkscape:export-filename="/home/jered/bumscrape/website/tp.png"
       inkscape:export-xdpi="90"
       inkscape:export-ydpi="90" />
    <path
       transform="matrix(1,0,0,2.2117647,1.399942,-211.34834)"
       style="fill:#ffffff;fill-opacity:1;stroke:#000000;stroke-width:1.68101096999999999;stroke-opacity:1;stroke-miterlimit:4;stroke-dasharray:none;stroke-linejoin:round;stroke-linecap:round"
       d="m 218.13862,240.05174 c 0,18.48438 -32.78972,33.46892 -73.23788,33.46892 -40.44816,0 -73.237875,-14.98454 -73.237875,-33.46892 0,-18.48437 32.789715,-33.46892 73.237875,-33.46892 40.44816,0 73.23788,14.98455 73.23788,33.46892 z"
       id="path3034-5"
       inkscape:export-filename="/home/jered/bumscrape/website/tp.png"
       inkscape:export-xdpi="90"
       inkscape:export-ydpi="90" />
    <path
       inkscape:connector-curvature="0"
       style="fill:#000000;fill-opacity:1;stroke:#ffffff;stroke-width:1;stroke-opacity:1"
       d="m 176.0384,319.9834 c 0,18.26691 -13.92681,33.07517 -31.10641,33.07517 -17.17959,0 -31.10641,-14.80826 -31.10641,-33.07517 0,-18.26691 13.92682,-33.07517 31.10641,-33.07517 17.17959,0 31.10641,14.80826 31.10641,33.07517 z"
       id="path3034-5-9"
       inkscape:export-filename="/home/jered/bumscrape/website/tp.png"
       inkscape:export-xdpi="90"
       inkscape:export-ydpi="90" />
    <path
       style="fill:#000000;fill-opacity:1;stroke:#000000;stroke-width:2.5;stroke-linecap:round;stroke-linejoin:round;stroke-miterlimit:4;stroke-opacity:1;stroke-dasharray:none"
       id="path4098"
       d="m 112.98555,217.80766 c 4.48629,1.97931 9.4702,2.16238 14.19188,3.23398 6.52577,1.48102 12.99395,3.20734 19.51394,4.71356 16.07104,4.43315 32.32108,8.40121 48.16623,13.61987 6.16805,2.03147 30.04138,10.89046 36.43055,13.24577 0,0 -14.2255,9.56863 -14.2255,9.56863 l 0,0 c -5.77642,-2.24584 -11.49351,-4.65066 -17.32926,-6.7375 -22.45576,-8.03011 -45.62378,-13.99781 -69.01638,-18.55631 -12.3535,-2.01709 -24.86761,-3.32402 -37.067524,-6.13392 0,0 19.336064,-12.95408 19.336064,-12.95408 z"
       inkscape:connector-curvature="0"
       inkscape:export-filename="/home/jered/bumscrape/website/tp.png"
       inkscape:export-xdpi="90"
       inkscape:export-ydpi="90" />
  </g>
</svg>
